<svg width="732" height="732" viewBox="0 0 732 732" fill="none" xmlns="http://www.w3.org/2000/svg">
<path fill-rule="evenodd" clip-rule="evenodd" d="M366 244C298.621 244 244 189.379 244 122C244 54.6213 298.621 0 366 0C433.379 0 488 54.6213 488 122C488 189.379 542.621 244 610 244C677.379 244 732 298.621 732 366C732 433.379 677.379 488 610 488C542.621 488 488 542.621 488 610C488 677.379 433.379 732 366 732C298.621 732 244 677.379 244 610C244 542.621 189.379 488 122 488C54.6213 488 0 433.379 0 366C0 298.621 54.6213 244 122 244C189.379 244 244 298.621 244 366C244 433.379 298.621 488 366 488C433.379 488 488 433.379 488 366C488 298.621 433.379 244 366 244Z" fill="white"/>
</svg>
